<svg width="16" height="16" viewBox="0 0 16 16" xmlns="http://www.w3.org/2000/svg">
  <!-- Phone body with screen cutout and home button -->
  <path fill-rule="evenodd" d="M4 2a1 1 0 0 1 1-1h4a1 1 0 0 1 1 1v12a1 1 0 0 1-1 1H5a1 1 0 0 1-1-1V2zm1 1.5h4v7H5zM7 13a.75.75 0 1 0 0-1.5.75.75 0 0 0 0 1.5z" fill="currentColor"/>
  <!-- Connection waves -->
  <path d="M11.5 5.5a3.5 3.5 0 0 1 0 5" fill="none" stroke="currentColor" stroke-width="1.3" stroke-linecap="round"/>
  <path d="M13.5 3.5a6.5 6.5 0 0 1 0 9" fill="none" stroke="currentColor" stroke-width="1.3" stroke-linecap="round"/>
</svg>
