<svg width="16" height="16" viewBox="0 0 16 16" xmlns="http://www.w3.org/2000/svg">
  <!-- Phone body with screen cutout and home button (dimmed) -->
  <path fill-rule="evenodd" d="M4 2a1 1 0 0 1 1-1h4a1 1 0 0 1 1 1v12a1 1 0 0 1-1 1H5a1 1 0 0 1-1-1V2zm1 1.5h4v7H5zM7 13a.75.75 0 1 0 0-1.5.75.75 0 0 0 0 1.5z" fill="currentColor" opacity="0.35"/>
  <!-- X indicator (bottom-right, matching Pop icon convention) -->
  <path d="M11 11v1c0 .276.1.538.281.719l.781.781-.78.781A1.015 1.015 0 0 0 11 15v1h1c.276 0 .538-.1.719-.281l.781-.781.781.78c.181.182.443.282.719.282h1v-1c0-.276-.1-.538-.281-.719l-.781-.781.78-.781c.182-.181.282-.443.282-.719v-1h-1c-.276 0-.538.1-.719.281l-.781.781-.781-.78A1.015 1.015 0 0 0 12 11z" fill="currentColor"/>
</svg>
