<svg width="128" height="128" viewBox="0 0 128 128" xmlns="http://www.w3.org/2000/svg">
  <!-- Phone body with screen cutout and home button -->
  <path fill-rule="evenodd" d="M36 16a8 8 0 0 1 8-8h40a8 8 0 0 1 8 8v96a8 8 0 0 1-8 8H44a8 8 0 0 1-8-8V16zm8 12h40v56H44zM64 104a6 6 0 1 0 0-12 6 6 0 0 0 0 12z" fill="#BEBEBE"/>
  <!-- Connection waves -->
  <path d="M96 44a28 28 0 0 1 0 40" fill="none" stroke="#BEBEBE" stroke-width="5" stroke-linecap="round"/>
  <path d="M106 32a48 48 0 0 1 0 64" fill="none" stroke="#BEBEBE" stroke-width="5" stroke-linecap="round"/>
</svg>
